<?xml version="1.0" encoding="utf-8"?>
<!-- Generator: Adobe Illustrator 17.1.0, SVG Export Plug-In . SVG Version: 6.00 Build 0)  -->
<!DOCTYPE svg PUBLIC "-//W3C//DTD SVG 1.1//EN" "http://www.w3.org/Graphics/SVG/1.1/DTD/svg11.dtd">
<svg version="1.1" id="Layer_1" xmlns="http://www.w3.org/2000/svg" xmlns:xlink="http://www.w3.org/1999/xlink" x="0px" y="0px"
	 width="595.3px" height="841.9px" viewBox="0 0 595.3 841.9" enable-background="new 0 0 595.3 841.9" xml:space="preserve">
<g>
	
		<line fill="none" stroke="#AB509D" stroke-width="6" stroke-linejoin="round" stroke-miterlimit="10" x1="146.1" y1="450.1" x2="146.1" y2="516.2"/>
	
		<line fill="none" stroke="#AB509D" stroke-width="6" stroke-linejoin="round" stroke-miterlimit="10" x1="182.3" y1="450.1" x2="182.3" y2="516.2"/>
	
		<line fill="none" stroke="#AB509D" stroke-width="6" stroke-linejoin="round" stroke-miterlimit="10" x1="146.8" y1="482.9" x2="181.6" y2="482.9"/>
	
		<line fill="none" stroke="#AB509D" stroke-width="6" stroke-linejoin="round" stroke-miterlimit="10" x1="502.9" y1="450.1" x2="502.9" y2="516.2"/>
	
		<line fill="none" stroke="#AB509D" stroke-width="6" stroke-linejoin="round" stroke-miterlimit="10" x1="539" y1="450.1" x2="539" y2="516.2"/>
	
		<line fill="none" stroke="#AB509D" stroke-width="6" stroke-linejoin="round" stroke-miterlimit="10" x1="503.5" y1="482.9" x2="538.4" y2="482.9"/>
	<polyline fill="none" stroke="#AB509D" stroke-width="6" stroke-linejoin="round" stroke-miterlimit="10" points="197.2,454.3 
		220.4,454.3 242.5,454.3 	"/>
	
		<line fill="none" stroke="#AB509D" stroke-width="6" stroke-linejoin="round" stroke-miterlimit="10" x1="219.9" y1="516.5" x2="219.9" y2="454.3"/>
	<polyline fill="none" stroke="#AB509D" stroke-width="6" stroke-linejoin="round" stroke-miterlimit="10" points="444.8,454.3 
		468,454.3 490.1,454.3 	"/>
	
		<line fill="none" stroke="#AB509D" stroke-width="6" stroke-linejoin="round" stroke-miterlimit="10" x1="467.5" y1="515.2" x2="467.5" y2="454.3"/>
	<path fill="none" stroke="#AB509D" stroke-width="6" stroke-linejoin="round" stroke-miterlimit="10" d="M591.6,453c0,0-7-0.3-16,0
		c-6.8,0.3-17.9-0.6-18,15.3c0,12.8,10.6,12.8,10.6,12.8s8,0.3,12.1,0.3s11.5,3.1,11.7,14.4c0.1,10.1-5,16.6-15.2,17.1
		c-10.2,0.4-22.7,0-22.7,0"/>
	<path fill="none" stroke="#AB509D" stroke-width="6" stroke-linejoin="round" stroke-miterlimit="10" d="M314.6,453c0,0-7-0.3-16,0
		c-6.8,0.3-17.9-0.6-18,15.3c0,12.8,10.6,12.8,10.6,12.8s8,0.3,12.1,0.3s11.5,3.1,11.7,14.4c0.1,10.1-5,16.6-15.2,17.1
		c-10.2,0.4-22.7,0-22.7,0"/>
	
		<line fill="none" stroke="#AB509D" stroke-width="6" stroke-linejoin="round" stroke-miterlimit="10" x1="332.9" y1="451" x2="352.3" y2="486.4"/>
	
		<line fill="none" stroke="#AB509D" stroke-width="6" stroke-linejoin="round" stroke-miterlimit="10" x1="373.3" y1="451" x2="332.5" y2="514.9"/>
	<path fill="none" stroke="#AB509D" stroke-width="6" stroke-linejoin="round" stroke-miterlimit="10" d="M427.7,450.6
		c0,0,0.1,50.2-0.3,57.4c-0.3,4.6-6,6.3-8.3,0.3l-23.4-51.2c-2.3-6.1-8-4.3-8.3,0.3c-0.4,7.3-0.3,58.7-0.3,58.7"/>
	<path fill="none" stroke="#AB509D" stroke-width="6" stroke-linejoin="round" stroke-miterlimit="10" d="M123.3,453.7
		c0,0-15.1-0.3-19.7,0.3c-5.5,0.6-24.8,6.1-24.8,29.1c0,24,22.6,29,29.6,29.5c5.2,0.4,15.2,0,15.2,0v-26.3"/>
	
		<line fill="none" stroke="#AB509D" stroke-width="6" stroke-linejoin="round" stroke-miterlimit="10" x1="55.4" y1="451.3" x2="55.4" y2="515.5"/>
	<path fill="none" stroke="#AB509D" stroke-width="6" stroke-linejoin="round" stroke-miterlimit="10" d="M2.8,448.7v45.4
		c0,0-0.5,18,21.1,18c10.6,0,13.5,0,13.5,0"/>
</g>
<path fill="none" stroke="#44AADF" stroke-width="4" stroke-linecap="round" stroke-linejoin="round" stroke-miterlimit="10" d="
	M330.7,378.9c24-16.1,26.9-29.5,20-33.3c-7-4-13.3,7.1-15.4,11.4c-3.4,6.6-7,29.9-5.6,36.6c1.4,6.8,5.5,10,11.9,10.1
	c10.3,0.3,25.5-18,32.8-26.8c3.7-4.3,14.7-19.7,19.5-27.7c4.9-8,8.3-21.2,0.5-20.7s-7.5,20,2,22.3c6.9,1.7,9.3,1.3,8.9,6.3
	c-0.3,5-6.8,32.5-2.3,37.8c5.7,6.9,12.9,1.4,17.2-2.6c5.4-4.9,23.7-26.5,23.7-26.5"/>
<path fill="none" stroke="#44AADF" stroke-width="4" stroke-linecap="round" stroke-linejoin="round" stroke-miterlimit="10" d="
	M228.3,365.1c0,0-0.6-5.9-7-6.9s-16.3,4.1-20.8,25.8c-4.2,20.2-2,28.8,3.2,32.4c4.2,3.1,11.7-0.5,15.2-4.7c4.5-5.6,6.4-18.1,7-23.7
	c2.2-18,4.2-32.2,4.2-32.2l-5,47c0,0-1.7,10.7,3.6,11.9c5,1.1,13.7-10,19.8-17.4c6.5-7.9,23.1-32.4,30.5-40.8
	c3.6-4.2,7.5-17.2-0.4-16.6c-8.7,0.8-7.3,14.6,0.4,24.6c6.8,8.9,12.1,17.6,11.9,26c-0.1,8.4-4.1,19.7-13.9,18.9
	c-10-0.9-9.8-4.9-9.8-4.9s5.7,7.3,19,4.7c13.3-2.6,24.4-18,27.4-21.4c3.2-3.6,13.7-17.1,23.7-34"/>
<path fill="none" stroke="#44AADF" stroke-width="4" stroke-linecap="round" stroke-linejoin="round" stroke-miterlimit="10" d="
	M137.2,419.7c16.2-22.2,57.3-101.9,42.9-109c-22.5-11.4-29.5,93.8-29.5,93.8s-1.9,12.5,1.4,15.3c3.1,2.7,7.9,3.7,15.2-2.4
	c8.6-7,37-45.3,38.4-48.9"/>
</svg>
