<?xml version="1.0" encoding="utf-8"?>
<!-- Generator: Adobe Illustrator 17.1.0, SVG Export Plug-In . SVG Version: 6.00 Build 0)  -->
<!DOCTYPE svg PUBLIC "-//W3C//DTD SVG 1.0//EN" "http://www.w3.org/TR/2001/REC-SVG-20010904/DTD/svg10.dtd">
<svg version="1.0"
	 id="svg3769" sodipodi:docname="New document 3" inkscape:version="0.48.3.1 r9886" xmlns:dc="http://purl.org/dc/elements/1.1/" xmlns:cc="http://creativecommons.org/ns#" xmlns:inkscape="http://www.inkscape.org/namespaces/inkscape" xmlns:svg="http://www.w3.org/2000/svg" xmlns:sodipodi="http://sodipodi.sourceforge.net/DTD/sodipodi-0.dtd" xmlns:rdf="http://www.w3.org/1999/02/22-rdf-syntax-ns#"
	 xmlns="http://www.w3.org/2000/svg" xmlns:xlink="http://www.w3.org/1999/xlink" x="0px" y="0px" viewBox="0 0 222.639 218.787"
	 enable-background="new 0 0 222.639 218.787" xml:space="preserve">
<sodipodi:namedview  inkscape:window-maximized="1" inkscape:window-y="0" inkscape:window-x="0" inkscape:pageshadow="2" inkscape:window-height="965" inkscape:pageopacity="0.0" inkscape:window-width="1280" inkscape:current-layer="layer1" fit-margin-bottom="4" inkscape:document-units="px" fit-margin-right="4" id="base" inkscape:cy="-39.177766" fit-margin-left="4" borderopacity="1.0" fit-margin-top="4" inkscape:zoom="1.4" bordercolor="#666666" inkscape:cx="60.605349" pagecolor="#ffffff" showgrid="false">
	</sodipodi:namedview>
<path fill="none" stroke="#44AADF" stroke-width="4" stroke-linecap="round" stroke-linejoin="round" stroke-miterlimit="10" d="
	M167.583,74.234c37.958-25.53,42.638-46.827,31.834-52.874c-11.17-6.252-20.95,11.305-24.411,17.973
	c-5.482,10.56-11.135,47.355-8.948,58.059s8.776,15.754,18.725,16.045c16.399,0.48,40.393-28.458,52.068-42.426
	c5.794-6.932,23.368-31.077,30.985-43.885s13.214-33.629,0.871-32.804s-11.955,31.835,3.307,35.453
	c10.854,2.572,14.726,2.066,14.236,9.986s-10.674,51.549-3.698,59.968c9.013,10.876,20.491,2.215,27.267-4.037
	c8.409-7.759,37.548-42.021,37.548-42.021"/>
<path fill="none" stroke="#44AADF" stroke-width="4" stroke-linecap="round" stroke-linejoin="round" stroke-miterlimit="10" d="
	M5.323,52.456c0,0-1.078-9.346-11.217-10.921c-10.139-1.576-25.99,6.456-33.071,40.947c-6.577,32.034-3.137,45.663,4.972,51.409
	c6.731,4.77,18.715-0.831,24.015-7.481c7.059-8.855,10.024-28.794,11.116-37.585c3.539-28.49,6.71-51.041,6.71-51.041l-7.977,74.553
	c0,0-2.611,16.941,5.577,18.835c7.968,1.843,21.686-15.721,31.394-27.605C47.084,91.031,73.459,52.24,85.239,38.781
	c5.761-6.582,12-27.348-0.577-26.298c-13.752,1.148-11.523,23.138,0.525,39.024c10.764,14.194,19.196,27.934,18.904,41.288
	c-0.292,13.352-6.549,31.215-21.978,29.905c-15.682-1.332-15.677-7.697-15.677-7.697s9.127,11.442,30.057,7.441
	c21.093-4.032,38.623-28.444,43.498-34.038c4.982-5.717,21.671-27.21,37.693-53.902"/>
<path fill="none" stroke="#44AADF" stroke-width="4" stroke-linecap="round" stroke-linejoin="round" stroke-miterlimit="10" d="
	M-139.155,138.871c25.647-35.137,90.879-161.41,68.049-172.848c-35.484-17.778-46.686,148.851-46.686,148.851
	s-2.967,19.806,2.216,24.332c4.915,4.292,12.551,5.812,24.1-3.766C-78.002,124.265-32.888,63.667-30.542,58"/>
<line fill="none" stroke="#AB509D" stroke-width="4" stroke-linecap="square" stroke-linejoin="round" stroke-miterlimit="10" x1="481.471" y1="161.311" x2="480.729" y2="255.457"/>
<line fill="none" stroke="#AB509D" stroke-width="4" stroke-linecap="square" stroke-linejoin="round" stroke-miterlimit="10" x1="416.559" y1="161.311" x2="415.817" y2="255.457"/>
<polyline fill="none" stroke="#AB509D" stroke-width="4" stroke-linecap="square" stroke-linejoin="round" stroke-miterlimit="10" points="
	464.594,161.311 464.594,199.668 433.908,199.668 433.908,161.311 "/>
<polyline fill="none" stroke="#AB509D" stroke-width="4" stroke-linecap="square" stroke-linejoin="round" stroke-miterlimit="10" points="
	464.594,255.457 464.594,215.939 433.908,215.939 433.908,255.457 "/>
<line fill="none" stroke="#AB509D" stroke-width="4" stroke-linecap="square" stroke-linejoin="round" stroke-miterlimit="10" x1="331.903" y1="161.835" x2="398.838" y2="161.835"/>
<polyline fill="none" stroke="#AB509D" stroke-width="4" stroke-linecap="square" stroke-linejoin="round" stroke-miterlimit="10" points="
	331.903,179.117 356.35,179.117 355.609,254.969 "/>
<polyline fill="none" stroke="#AB509D" stroke-width="4" stroke-linecap="square" stroke-linejoin="round" stroke-miterlimit="10" points="
	398.838,179.117 374.391,179.117 373.649,254.969 "/>
<path fill="none" stroke="#AB509D" stroke-width="4" stroke-linecap="square" stroke-linejoin="round" stroke-miterlimit="10" d="
	M232.439,257.614c0,0,0.705-78.213,0.705-81.163c0-6.407,3.446-13.381,10.828-14.669c7.25-1.264,11.445,2.094,15.704,8.763
	c4.363,6.832,38.418,73.769,37.406,69.385l0.022-78.628"/>
<path fill="none" stroke="#AB509D" stroke-width="4" stroke-linecap="square" stroke-linejoin="round" stroke-miterlimit="10" d="
	M312.088,161.301c0,0-0.169,72.559-0.888,82.027c-0.485,6.389-5.249,14.286-11.57,15.83c-6.374,1.557-11.423-2.108-15.704-8.763
	c-4.255-6.614-35.57-69.476-35.57-69.476l-0.742,76.695"/>
<path fill="none" stroke="#AB509D" stroke-width="4" stroke-linecap="square" stroke-linejoin="round" stroke-miterlimit="10" d="
	M127.909,161.094l-39.699,0.004c0,0-30.786-2.693-30.968,24.364c-0.189,28.106,18.19,31.578,23.465,31.65
	c3.144,0.043,17.28,0,17.28,0s10.937,0.13,11.071,10.09c0.161,11.875-11.435,11.011-11.435,11.011l-44.474,0.014"/>
<path fill="none" stroke="#AB509D" stroke-width="4" stroke-linecap="square" stroke-linejoin="round" stroke-miterlimit="10" d="
	M127.727,177.14H85.368c0,0-11.028,0-11.073,12.005C74.252,200.339,85.55,199.66,85.55,199.66h16.303c0,0,24.147,0,24.283,26.183
	c0.149,28.65-24.283,29.331-24.283,29.331H53.149"/>
<path fill="none" stroke="#AB509D" stroke-width="4" stroke-linecap="square" stroke-linejoin="round" stroke-miterlimit="10" d="
	M580.955,161.094l-39.699,0.004c0,0-30.786-2.693-30.968,24.364c-0.189,28.106,18.19,31.578,23.465,31.65
	c3.143,0.043,17.28,0,17.28,0s10.937,0.13,11.071,10.09c0.161,11.875-11.435,11.011-11.435,11.011l-44.474,0.014"/>
<path fill="none" stroke="#AB509D" stroke-width="4" stroke-linecap="square" stroke-linejoin="round" stroke-miterlimit="10" d="
	M580.773,177.14h-42.359c0,0-11.028,0-11.073,12.005c-0.042,11.194,11.255,10.515,11.255,10.515h16.303c0,0,24.147,0,24.283,26.183
	c0.149,28.65-24.283,29.331-24.283,29.331h-48.703"/>
<polyline fill="none" stroke="#AB509D" stroke-width="4" stroke-linecap="square" stroke-linejoin="round" stroke-miterlimit="10" points="
	148.9,161.852 176.72,210.663 148.9,256.939 "/>
<polyline fill="none" stroke="#AB509D" stroke-width="4" stroke-linecap="square" stroke-linejoin="round" stroke-miterlimit="10" points="
	167.363,161.852 185.825,195.489 206.563,161.852 "/>
<line fill="none" stroke="#AB509D" stroke-width="4" stroke-linecap="square" stroke-linejoin="round" stroke-miterlimit="10" x1="225.278" y1="161.852" x2="167.363" y2="256.939"/>
<path fill="none" stroke="#AB509D" stroke-width="4" stroke-linecap="square" stroke-linejoin="round" stroke-miterlimit="10" d="
	M-165.19,163.593c0,0-23.942-0.439-31.192,0.351c-8.666,0.944-39.285,9.739-39.285,46.157c0,38.104,35.856,45.924,46.872,46.703
	c8.346,0.59,24.11,0,24.11,0v-41.561"/>
<path fill="none" stroke="#AB509D" stroke-width="4" stroke-linecap="square" stroke-linejoin="round" stroke-miterlimit="10" d="
	M-165.696,180.952c0,0-15.952,0-23.099,0c-8.093,0-30.517,5.376-30.517,27.463c0,19.558,16.439,27.567,22.762,29.168
	c4.877,1.236,15.174,1.349,15.174,1.349l0.253-23.689"/>
<line fill="none" stroke="#AB509D" stroke-width="4" stroke-linecap="square" stroke-linejoin="round" stroke-miterlimit="10" x1="-73.301" y1="163.194" x2="-73.301" y2="256.179"/>
<line fill="none" stroke="#AB509D" stroke-width="4" stroke-linecap="square" stroke-linejoin="round" stroke-miterlimit="10" x1="-138.213" y1="163.194" x2="-138.213" y2="256.179"/>
<polyline fill="none" stroke="#AB509D" stroke-width="4" stroke-linecap="square" stroke-linejoin="round" stroke-miterlimit="10" points="
	-89.993,163.194 -89.993,201.551 -120.678,201.551 -120.678,163.194 "/>
<polyline fill="none" stroke="#AB509D" stroke-width="4" stroke-linecap="square" stroke-linejoin="round" stroke-miterlimit="10" points="
	-89.993,256.179 -89.993,217.821 -120.678,217.821 -120.678,256.179 "/>
<line fill="none" stroke="#AB509D" stroke-width="4" stroke-linecap="square" stroke-linejoin="round" stroke-miterlimit="10" x1="-54.923" y1="164.282" x2="12.013" y2="164.282"/>
<polyline fill="none" stroke="#AB509D" stroke-width="4" stroke-linecap="square" stroke-linejoin="round" stroke-miterlimit="10" points="
	-54.923,181.564 -30.475,181.564 -30.475,256.255 "/>
<polyline fill="none" stroke="#AB509D" stroke-width="4" stroke-linecap="square" stroke-linejoin="round" stroke-miterlimit="10" points="
	12.013,181.564 -12.435,181.564 -12.435,256.255 "/>
<line fill="none" stroke="#AB509D" stroke-width="4" stroke-linecap="square" stroke-linejoin="round" stroke-miterlimit="10" x1="-270.736" y1="163.826" x2="-270.736" y2="255.547"/>
<line fill="none" stroke="#AB509D" stroke-width="4" stroke-linecap="square" stroke-linejoin="round" stroke-miterlimit="10" x1="-254.55" y1="163.826" x2="-254.55" y2="255.547"/>
<path fill="none" stroke="#AB509D" stroke-width="4" stroke-linecap="square" stroke-linejoin="round" stroke-miterlimit="10" d="
	M-346.017,161.787v66.051c0,0-0.801,28.552,33.341,28.552c16.818,0,21.539-0.012,21.539-0.012"/>
<path fill="none" stroke="#AB509D" stroke-width="4" stroke-linecap="square" stroke-linejoin="round" stroke-miterlimit="10" d="
	M-331.964,161.787v55.471c0,0-1.829,24.089,20.397,24.089c10.652,0,20.431,0,20.431,0"/>
<path fill="none" stroke="#AB509D" stroke-width="4" stroke-linecap="square" stroke-linejoin="round" stroke-miterlimit="10" d="
	M-349.979,261.094"/>
<path fill="none" stroke="#AB509D" stroke-width="4" stroke-linecap="square" stroke-linejoin="round" stroke-miterlimit="10" d="
	M-358.578,158.921"/>
</svg>
