<?xml version="1.0" encoding="utf-8"?>
<!-- Generator: Adobe Illustrator 17.1.0, SVG Export Plug-In . SVG Version: 6.00 Build 0)  -->
<!DOCTYPE svg PUBLIC "-//W3C//DTD SVG 1.1//EN" "http://www.w3.org/Graphics/SVG/1.1/DTD/svg11.dtd">
<svg version="1.1" id="Layer_1" xmlns="http://www.w3.org/2000/svg" xmlns:xlink="http://www.w3.org/1999/xlink" x="0px" y="0px"
	 width="466.4px" height="149.7px" viewBox="0 0 466.4 149.7" enable-background="new 0 0 466.4 149.7" xml:space="preserve">
<g>
	<defs>
		<rect id="SVGID_1_" x="-63.9" y="-48.2" width="592.1" height="211.3"/>
	</defs>
	<clipPath id="SVGID_2_">
		<use xlink:href="#SVGID_1_"  overflow="visible"/>
	</clipPath>
	
		<path clip-path="url(#SVGID_2_)" fill="none" stroke="#44AADF" stroke-width="4" stroke-linecap="round" stroke-linejoin="round" stroke-miterlimit="10" d="
		M266.3,23.1c23.8-16,26.8-29.4,20-33.2C279.3-14,273.1-3,271,1.2c-3.4,6.6-7,29.7-5.6,36.4c1.4,6.7,5.5,9.9,11.8,10.1
		c10.3,0.3,25.3-17.9,32.7-26.6c3.6-4.3,14.7-19.5,19.4-27.5c4.8-8,8.3-21.1,0.5-20.6c-7.7,0.5-7.5,20,2.1,22.2
		c6.8,1.6,9.2,1.3,8.9,6.3s-6.7,32.3-2.3,37.6c5.7,6.8,12.9,1.4,17.1-2.5c5.3-4.9,23.6-26.4,23.6-26.4"/>
</g>
<g>
	<defs>
		<rect id="SVGID_3_" x="-63.9" y="-48.2" width="592.1" height="211.3"/>
	</defs>
	<clipPath id="SVGID_4_">
		<use xlink:href="#SVGID_3_"  overflow="visible"/>
	</clipPath>
	
		<path clip-path="url(#SVGID_4_)" fill="none" stroke="#44AADF" stroke-width="4" stroke-linecap="round" stroke-linejoin="round" stroke-miterlimit="10" d="
		M164.5,9.5c0,0-0.7-5.9-7-6.9s-16.3,4.1-20.8,25.7c-4.1,20.1-2,28.7,3.1,32.3c4.2,3,11.7-0.5,15.1-4.7c4.4-5.6,6.3-18.1,7-23.6
		c2.2-17.9,4.2-32,4.2-32l-5,46.8c0,0-1.6,10.6,3.5,11.8c5,1.2,13.6-9.9,19.7-17.3c6.4-7.9,23-32.2,30.4-40.7
		c3.6-4.1,7.5-17.2-0.4-16.5c-8.6,0.7-7.2,14.5,0.3,24.5c6.8,8.9,12,17.5,11.9,25.9c-0.2,8.4-4.1,19.6-13.8,18.8
		c-9.8-0.8-9.8-4.8-9.8-4.8s5.7,7.2,18.9,4.7c13.2-2.5,24.2-17.8,27.3-21.4c3.1-3.6,13.6-17.1,23.7-33.8"/>
</g>
<g>
	<defs>
		<rect id="SVGID_5_" x="-63.9" y="-48.2" width="592.1" height="211.3"/>
	</defs>
	<clipPath id="SVGID_6_">
		<use xlink:href="#SVGID_5_"  overflow="visible"/>
	</clipPath>
	
		<path clip-path="url(#SVGID_6_)" fill="none" stroke="#44AADF" stroke-width="4" stroke-linecap="round" stroke-linejoin="round" stroke-miterlimit="10" d="
		M73.8,63.7c16.1-22,57-101.3,42.7-108.5C94.3-55.9,87.2,48.6,87.2,48.6s-1.9,12.4,1.4,15.3c3.1,2.7,7.9,3.6,15.1-2.4
		c8.5-7,36.8-45,38.2-48.6"/>
</g>
<g>
	<defs>
		<rect id="SVGID_7_" x="-63.9" y="-48.2" width="592.1" height="211.3"/>
	</defs>
	<clipPath id="SVGID_8_">
		<use xlink:href="#SVGID_7_"  overflow="visible"/>
	</clipPath>
	
		<line clip-path="url(#SVGID_8_)" fill="none" stroke="#AB509D" stroke-width="4" stroke-linecap="square" stroke-linejoin="round" stroke-miterlimit="10" x1="463.3" y1="99" x2="462.8" y2="158.1"/>
</g>
<g>
	<defs>
		<rect id="SVGID_9_" x="-63.9" y="-48.2" width="592.1" height="211.3"/>
	</defs>
	<clipPath id="SVGID_10_">
		<use xlink:href="#SVGID_9_"  overflow="visible"/>
	</clipPath>
	
		<line clip-path="url(#SVGID_10_)" fill="none" stroke="#AB509D" stroke-width="4" stroke-linecap="square" stroke-linejoin="round" stroke-miterlimit="10" x1="422.5" y1="99" x2="422.1" y2="158.1"/>
</g>
<polyline fill="none" stroke="#AB509D" stroke-width="4" stroke-linecap="square" stroke-linejoin="round" stroke-miterlimit="10" points="
	452.7,99 452.7,123.1 433.4,123.1 433.4,99 "/>
<g>
	<defs>
		<rect id="SVGID_11_" x="-63.9" y="-48.2" width="592.1" height="211.3"/>
	</defs>
	<clipPath id="SVGID_12_">
		<use xlink:href="#SVGID_11_"  overflow="visible"/>
	</clipPath>
	
		<polyline clip-path="url(#SVGID_12_)" fill="none" stroke="#AB509D" stroke-width="4" stroke-linecap="square" stroke-linejoin="round" stroke-miterlimit="10" points="
		452.7,158.1 452.7,133.3 433.4,133.3 433.4,158.1 	"/>
</g>
<line fill="none" stroke="#AB509D" stroke-width="4" stroke-linecap="square" stroke-linejoin="round" stroke-miterlimit="10" x1="369.4" y1="99.4" x2="411.4" y2="99.4"/>
<g>
	<defs>
		<rect id="SVGID_13_" x="-63.9" y="-48.2" width="592.1" height="211.3"/>
	</defs>
	<clipPath id="SVGID_14_">
		<use xlink:href="#SVGID_13_"  overflow="visible"/>
	</clipPath>
	
		<polyline clip-path="url(#SVGID_14_)" fill="none" stroke="#AB509D" stroke-width="4" stroke-linecap="square" stroke-linejoin="round" stroke-miterlimit="10" points="
		369.4,110.2 384.8,110.2 384.3,157.8 	"/>
</g>
<g>
	<defs>
		<rect id="SVGID_15_" x="-63.9" y="-48.2" width="592.1" height="211.3"/>
	</defs>
	<clipPath id="SVGID_16_">
		<use xlink:href="#SVGID_15_"  overflow="visible"/>
	</clipPath>
	
		<polyline clip-path="url(#SVGID_16_)" fill="none" stroke="#AB509D" stroke-width="4" stroke-linecap="square" stroke-linejoin="round" stroke-miterlimit="10" points="
		411.4,110.2 396.1,110.2 395.6,157.8 	"/>
</g>
<g>
	<defs>
		<rect id="SVGID_17_" x="-63.9" y="-48.2" width="592.1" height="211.3"/>
	</defs>
	<clipPath id="SVGID_18_">
		<use xlink:href="#SVGID_17_"  overflow="visible"/>
	</clipPath>
	
		<path clip-path="url(#SVGID_18_)" fill="none" stroke="#AB509D" stroke-width="4" stroke-linecap="square" stroke-linejoin="round" stroke-miterlimit="10" d="
		M307,159.5c0,0,0.4-49.1,0.4-50.9c0-4,2.2-8.4,6.8-9.2c4.5-0.8,7.2,1.3,9.9,5.5c2.7,4.3,24.1,46.3,23.5,43.5l0-49.3"/>
</g>
<g>
	<defs>
		<rect id="SVGID_19_" x="-63.9" y="-48.2" width="592.1" height="211.3"/>
	</defs>
	<clipPath id="SVGID_20_">
		<use xlink:href="#SVGID_19_"  overflow="visible"/>
	</clipPath>
	
		<path clip-path="url(#SVGID_20_)" fill="none" stroke="#AB509D" stroke-width="4" stroke-linecap="square" stroke-linejoin="round" stroke-miterlimit="10" d="
		M357,99c0,0-0.1,45.5-0.6,51.5c-0.3,4-3.3,9-7.3,9.9c-4,1-7.2-1.3-9.9-5.5c-2.7-4.2-22.3-43.6-22.3-43.6l-0.5,48.1"/>
</g>
<g>
	<defs>
		<rect id="SVGID_21_" x="-63.9" y="-48.2" width="592.1" height="211.3"/>
	</defs>
	<clipPath id="SVGID_22_">
		<use xlink:href="#SVGID_21_"  overflow="visible"/>
	</clipPath>
	
		<path clip-path="url(#SVGID_22_)" fill="none" stroke="#AB509D" stroke-width="4" stroke-linecap="square" stroke-linejoin="round" stroke-miterlimit="10" d="
		M241.4,98.9l-24.9,0c0,0-19.3-1.7-19.4,15.3c-0.1,17.6,11.4,19.8,14.7,19.9c2,0,10.8,0,10.8,0s6.9,0.1,6.9,6.3
		c0.1,7.5-7.2,6.9-7.2,6.9l-27.9,0"/>
</g>
<g>
	<defs>
		<rect id="SVGID_23_" x="-63.9" y="-48.2" width="592.1" height="211.3"/>
	</defs>
	<clipPath id="SVGID_24_">
		<use xlink:href="#SVGID_23_"  overflow="visible"/>
	</clipPath>
	
		<path clip-path="url(#SVGID_24_)" fill="none" stroke="#AB509D" stroke-width="4" stroke-linecap="square" stroke-linejoin="round" stroke-miterlimit="10" d="
		M241.3,109h-26.6c0,0-6.9,0-6.9,7.5c0,7,7.1,6.6,7.1,6.6h10.2c0,0,15.2,0,15.2,16.4c0.1,18-15.2,18.4-15.2,18.4h-30.6"/>
</g>
<g>
	<defs>
		<rect id="SVGID_25_" x="-63.9" y="-48.2" width="592.1" height="211.3"/>
	</defs>
	<clipPath id="SVGID_26_">
		<use xlink:href="#SVGID_25_"  overflow="visible"/>
	</clipPath>
	
		<path clip-path="url(#SVGID_26_)" fill="none" stroke="#AB509D" stroke-width="4" stroke-linecap="square" stroke-linejoin="round" stroke-miterlimit="10" d="
		M525.7,98.9l-24.9,0c0,0-19.3-1.7-19.4,15.3c-0.1,17.6,11.4,19.8,14.7,19.9c2,0,10.8,0,10.8,0s6.9,0.1,6.9,6.3
		c0.1,7.5-7.2,6.9-7.2,6.9l-27.9,0"/>
</g>
<g>
	<defs>
		<rect id="SVGID_27_" x="-63.9" y="-48.2" width="592.1" height="211.3"/>
	</defs>
	<clipPath id="SVGID_28_">
		<use xlink:href="#SVGID_27_"  overflow="visible"/>
	</clipPath>
	
		<path clip-path="url(#SVGID_28_)" fill="none" stroke="#AB509D" stroke-width="4" stroke-linecap="square" stroke-linejoin="round" stroke-miterlimit="10" d="
		M525.6,109H499c0,0-6.9,0-6.9,7.5c0,7,7.1,6.6,7.1,6.6h10.2c0,0,15.2,0,15.2,16.4c0.1,18-15.2,18.4-15.2,18.4h-30.6"/>
</g>
<g>
	<defs>
		<rect id="SVGID_29_" x="-63.9" y="-48.2" width="592.1" height="211.3"/>
	</defs>
	<clipPath id="SVGID_30_">
		<use xlink:href="#SVGID_29_"  overflow="visible"/>
	</clipPath>
	
		<polyline clip-path="url(#SVGID_30_)" fill="none" stroke="#AB509D" stroke-width="4" stroke-linecap="square" stroke-linejoin="round" stroke-miterlimit="10" points="
		254.6,99.4 272,130 254.6,159 	"/>
</g>
<g>
	<defs>
		<rect id="SVGID_31_" x="-63.9" y="-48.2" width="592.1" height="211.3"/>
	</defs>
	<clipPath id="SVGID_32_">
		<use xlink:href="#SVGID_31_"  overflow="visible"/>
	</clipPath>
	
		<polyline clip-path="url(#SVGID_32_)" fill="none" stroke="#AB509D" stroke-width="4" stroke-linecap="square" stroke-linejoin="round" stroke-miterlimit="10" points="
		266.2,99.4 277.8,120.5 290.8,99.4 	"/>
</g>
<g>
	<defs>
		<rect id="SVGID_33_" x="-63.9" y="-48.2" width="592.1" height="211.3"/>
	</defs>
	<clipPath id="SVGID_34_">
		<use xlink:href="#SVGID_33_"  overflow="visible"/>
	</clipPath>
	
		<line clip-path="url(#SVGID_34_)" fill="none" stroke="#AB509D" stroke-width="4" stroke-linecap="square" stroke-linejoin="round" stroke-miterlimit="10" x1="302.5" y1="99.4" x2="266.2" y2="159"/>
</g>
<g>
	<defs>
		<rect id="SVGID_35_" x="-63.9" y="-48.2" width="592.1" height="211.3"/>
	</defs>
	<clipPath id="SVGID_36_">
		<use xlink:href="#SVGID_35_"  overflow="visible"/>
	</clipPath>
	
		<path clip-path="url(#SVGID_36_)" fill="none" stroke="#AB509D" stroke-width="4" stroke-linecap="square" stroke-linejoin="round" stroke-miterlimit="10" d="
		M57.5,100.5c0,0-15-0.3-19.6,0.2c-5.4,0.6-24.7,6.1-24.7,29c0,23.9,22.5,28.8,29.4,29.3c5.2,0.4,15.1,0,15.1,0v-26.1"/>
</g>
<g>
	<defs>
		<rect id="SVGID_37_" x="-63.9" y="-48.2" width="592.1" height="211.3"/>
	</defs>
	<clipPath id="SVGID_38_">
		<use xlink:href="#SVGID_37_"  overflow="visible"/>
	</clipPath>
	
		<path clip-path="url(#SVGID_38_)" fill="none" stroke="#AB509D" stroke-width="4" stroke-linecap="square" stroke-linejoin="round" stroke-miterlimit="10" d="
		M57.2,111.4H42.7c-5.1,0-19.1,3.4-19.1,17.2c0,12.3,10.3,17.3,14.3,18.3c3.1,0.8,9.5,0.8,9.5,0.8l0.2-14.9"/>
</g>
<g>
	<defs>
		<rect id="SVGID_39_" x="-63.9" y="-48.2" width="592.1" height="211.3"/>
	</defs>
	<clipPath id="SVGID_40_">
		<use xlink:href="#SVGID_39_"  overflow="visible"/>
	</clipPath>
	
		<line clip-path="url(#SVGID_40_)" fill="none" stroke="#AB509D" stroke-width="4" stroke-linecap="square" stroke-linejoin="round" stroke-miterlimit="10" x1="115.1" y1="100.2" x2="115.1" y2="158.6"/>
</g>
<g>
	<defs>
		<rect id="SVGID_41_" x="-63.9" y="-48.2" width="592.1" height="211.3"/>
	</defs>
	<clipPath id="SVGID_42_">
		<use xlink:href="#SVGID_41_"  overflow="visible"/>
	</clipPath>
	
		<line clip-path="url(#SVGID_42_)" fill="none" stroke="#AB509D" stroke-width="4" stroke-linecap="square" stroke-linejoin="round" stroke-miterlimit="10" x1="74.4" y1="100.2" x2="74.4" y2="158.6"/>
</g>
<g>
	<defs>
		<rect id="SVGID_43_" x="-63.9" y="-48.2" width="592.1" height="211.3"/>
	</defs>
	<clipPath id="SVGID_44_">
		<use xlink:href="#SVGID_43_"  overflow="visible"/>
	</clipPath>
	
		<polyline clip-path="url(#SVGID_44_)" fill="none" stroke="#AB509D" stroke-width="4" stroke-linecap="square" stroke-linejoin="round" stroke-miterlimit="10" points="
		104.7,100.2 104.7,124.3 85.4,124.3 85.4,100.2 	"/>
</g>
<g>
	<defs>
		<rect id="SVGID_45_" x="-63.9" y="-48.2" width="592.1" height="211.3"/>
	</defs>
	<clipPath id="SVGID_46_">
		<use xlink:href="#SVGID_45_"  overflow="visible"/>
	</clipPath>
	
		<polyline clip-path="url(#SVGID_46_)" fill="none" stroke="#AB509D" stroke-width="4" stroke-linecap="square" stroke-linejoin="round" stroke-miterlimit="10" points="
		104.7,158.6 104.7,134.5 85.4,134.5 85.4,158.6 	"/>
</g>
<g>
	<defs>
		<rect id="SVGID_47_" x="-63.9" y="-48.2" width="592.1" height="211.3"/>
	</defs>
	<clipPath id="SVGID_48_">
		<use xlink:href="#SVGID_47_"  overflow="visible"/>
	</clipPath>
	
		<line clip-path="url(#SVGID_48_)" fill="none" stroke="#AB509D" stroke-width="4" stroke-linecap="square" stroke-linejoin="round" stroke-miterlimit="10" x1="126.7" y1="100.9" x2="168.7" y2="100.9"/>
</g>
<g>
	<defs>
		<rect id="SVGID_49_" x="-63.9" y="-48.2" width="592.1" height="211.3"/>
	</defs>
	<clipPath id="SVGID_50_">
		<use xlink:href="#SVGID_49_"  overflow="visible"/>
	</clipPath>
	
		<polyline clip-path="url(#SVGID_50_)" fill="none" stroke="#AB509D" stroke-width="4" stroke-linecap="square" stroke-linejoin="round" stroke-miterlimit="10" points="
		126.7,111.7 142,111.7 142,158.6 	"/>
</g>
<g>
	<defs>
		<rect id="SVGID_51_" x="-63.9" y="-48.2" width="592.1" height="211.3"/>
	</defs>
	<clipPath id="SVGID_52_">
		<use xlink:href="#SVGID_51_"  overflow="visible"/>
	</clipPath>
	
		<polyline clip-path="url(#SVGID_52_)" fill="none" stroke="#AB509D" stroke-width="4" stroke-linecap="square" stroke-linejoin="round" stroke-miterlimit="10" points="
		168.7,111.7 153.3,111.7 153.3,158.6 	"/>
</g>
<g>
	<defs>
		<rect id="SVGID_53_" x="-63.9" y="-48.2" width="592.1" height="211.3"/>
	</defs>
	<clipPath id="SVGID_54_">
		<use xlink:href="#SVGID_53_"  overflow="visible"/>
	</clipPath>
	
		<line clip-path="url(#SVGID_54_)" fill="none" stroke="#AB509D" stroke-width="4" stroke-linecap="square" stroke-linejoin="round" stroke-miterlimit="10" x1="-8.7" y1="100.6" x2="-8.7" y2="158.2"/>
</g>
<g>
	<defs>
		<rect id="SVGID_55_" x="-63.9" y="-48.2" width="592.1" height="211.3"/>
	</defs>
	<clipPath id="SVGID_56_">
		<use xlink:href="#SVGID_55_"  overflow="visible"/>
	</clipPath>
	
		<line clip-path="url(#SVGID_56_)" fill="none" stroke="#AB509D" stroke-width="4" stroke-linecap="square" stroke-linejoin="round" stroke-miterlimit="10" x1="1.4" y1="100.6" x2="1.4" y2="158.2"/>
</g>
<g>
	<defs>
		<rect id="SVGID_57_" x="-63.9" y="-48.2" width="592.1" height="211.3"/>
	</defs>
	<clipPath id="SVGID_58_">
		<use xlink:href="#SVGID_57_"  overflow="visible"/>
	</clipPath>
	
		<path clip-path="url(#SVGID_58_)" fill="none" stroke="#AB509D" stroke-width="4" stroke-linecap="square" stroke-linejoin="round" stroke-miterlimit="10" d="
		M-56,99.3v41.4c0,0-0.5,17.9,20.9,17.9c10.6,0,13.5,0,13.5,0"/>
</g>
<g>
	<defs>
		<rect id="SVGID_59_" x="-63.9" y="-48.2" width="592.1" height="211.3"/>
	</defs>
	<clipPath id="SVGID_60_">
		<use xlink:href="#SVGID_59_"  overflow="visible"/>
	</clipPath>
	
		<path clip-path="url(#SVGID_60_)" fill="none" stroke="#AB509D" stroke-width="4" stroke-linecap="square" stroke-linejoin="round" stroke-miterlimit="10" d="
		M-47.2,99.3v34.8c0,0-1.1,15.1,12.8,15.1h12.8"/>
</g>
</svg>
