<?xml version="1.0" encoding="utf-8"?>
<!-- Generator: Adobe Illustrator 15.1.0, SVG Export Plug-In . SVG Version: 6.00 Build 0)  -->
<!DOCTYPE svg PUBLIC "-//W3C//DTD SVG 1.1//EN" "http://www.w3.org/Graphics/SVG/1.1/DTD/svg11.dtd">
<svg version="1.1"
	 id="svg3769" sodipodi:docname="New document 3" inkscape:version="0.48.3.1 r9886" xmlns:dc="http://purl.org/dc/elements/1.1/" xmlns:cc="http://creativecommons.org/ns#" xmlns:inkscape="http://www.inkscape.org/namespaces/inkscape" xmlns:sodipodi="http://sodipodi.sourceforge.net/DTD/sodipodi-0.dtd" xmlns:svg="http://www.w3.org/2000/svg" xmlns:rdf="http://www.w3.org/1999/02/22-rdf-syntax-ns#"
	 xmlns="http://www.w3.org/2000/svg" xmlns:xlink="http://www.w3.org/1999/xlink" x="0px" y="0px" width="222.639px"
	 height="218.787px" viewBox="0 0 222.639 218.787" enable-background="new 0 0 222.639 218.787" xml:space="preserve">
<sodipodi:namedview  id="base" showgrid="false" inkscape:cy="-39.177766" pagecolor="#ffffff" inkscape:cx="60.605349" bordercolor="#666666" inkscape:zoom="1.4" fit-margin-top="4" borderopacity="1.0" inkscape:pageshadow="2" fit-margin-right="4" fit-margin-bottom="4" inkscape:pageopacity="0.0" fit-margin-left="4" inkscape:document-units="px" inkscape:current-layer="layer1" inkscape:window-width="1280" inkscape:window-height="965" inkscape:window-x="0" inkscape:window-y="0" inkscape:window-maximized="1">
	</sodipodi:namedview>
<path fill="none" stroke="#C1272D" stroke-linecap="round" stroke-linejoin="round" d="M-463.829,18.692
	c-10.615,6.231-25.025,0.332-28.128-11.598c-3.146-12.089,6.007-24.213,18.544-24.213"/>
<path fill="none" stroke="#FF0000" stroke-linecap="round" stroke-linejoin="round" d="M-463.829,18.692
	c12.587-7.388,12.587-25.896,0-33.284"/>
<path fill="none" stroke="#C1272D" stroke-linecap="round" stroke-linejoin="round" d="M-463.829-14.591
	c-2.849-1.671-6.038-2.527-9.584-2.527"/>
<path fill="none" stroke="#00FF00" stroke-linecap="round" stroke-linejoin="round" d="M-463.829,18.692
	c-12.584-7.385-12.584-25.898,0-33.284"/>
<path fill="none" stroke="#00FF00" stroke-linecap="round" stroke-linejoin="round" d="M-463.829,18.692
	c10.615,6.237,25.023,0.326,28.132-11.598c3.152-12.092-6.018-24.213-18.552-24.213"/>
<path fill="none" stroke="#009247" stroke-linecap="round" stroke-linejoin="round" d="M-454.249-17.118
	c-3.546,0-6.733,0.856-9.58,2.527"/>
<g>
	<path fill="none" stroke="#FFFFFF" stroke-miterlimit="10" d="M-617.164,182.1c0,8.729,5.497,14.75,14.278,15.126
		c1.812,0.077,3.636,0.023,5.448,0.023c9.069,0,18.14,0,27.21,0c10.187,0,20.373,0,30.56,0c5.866,0,14.22,1.188,19.03-2.718
		c4.851-3.938,5.223-12.553,2.816-17.9c-2.234-4.963-7.43-6.436-12.481-6.436c-7.423,0-14.844,0-22.266,0
		c-9.757,0-19.515,0-29.272,0c-0.293,0-4.481,0.058-4.481-0.052c0-1.352,0-2.703,0-4.055c0-33.439,0-66.882,0-100.324
		c0-7.268-3.594-13.583-11.106-15.039c-10.55-2.042-19.736,3.541-19.736,14.765"/>
	<path fill="none" stroke="#FFFFFF" stroke-miterlimit="10" d="M-479.188,65.491c0,33.384,0,66.768,0,100.152
		c0,5.574,0,11.146,0,16.72c0,3.536,0.374,7.089,2.321,10.149c4.32,6.79,15.165,7.856,21.838,4.146
		c6.839-3.805,6.683-11.473,6.683-18.237c0-7.479,0-14.955,0-22.435c0-21.199,0-42.4,0-63.6c0-7.383,0-14.766,0-22.151
		c0-6.986-0.077-14.887-7.481-18.356c-4.906-2.299-11.915-2.243-16.679,0.408C-477.278,54.943-479.188,60.273-479.188,65.491
		C-479.188,65.491-479.188,60.804-479.188,65.491z"/>
	<path fill="none" stroke="#FFFFFF" stroke-miterlimit="10" d="M-326.987,200.386c-3.153,0.112-6.295,0.138-9.447,0"/>
	<path fill="none" stroke="#FFFFFF" stroke-miterlimit="10" d="M-326.987,200.386c10.497-0.364,21.024-1.872,31.113-4.846
		c7.325-2.157,16.279-5.047,20.284-12.124c3.572-6.314,2.021-16.251,2.021-23.195c0-9.614,0-19.229,0-28.844
		c0-4.134-0.093-8.343-2.798-11.765c-3.163-4.001-8.025-4.337-12.724-4.337c-9.512,0-19.024,0-28.533,0
		c-4.561,0-9.291,0.037-12.759,3.516c-5.522,5.522-4.724,17.017,2.115,21.136c4.22,2.54,9.775,1.861,14.514,1.861
		c0.882,0,10.154-0.196,10.154,0.175c0,8.697,0,17.395,0,26.089c0,0.979,0,1.957,0,2.935c0,1.538-12.386,2.995-13.73,3.135
		c-9.334,0.979-19.239,1.452-28.216-1.76c-15.382-5.502-22.306-19.671-24.173-35.019c-1.87-15.377-1.615-34.929,8.326-47.802
		c10.366-13.427,30.006-16.775,45.753-12.958c4.552,1.116,9.033,2.452,13.478,3.942c4.412,1.478,8.714,3.345,13.464,3.06
		c9.178-0.549,14.127-10.688,10.387-18.802c-3.436-7.458-14.544-10.211-21.727-12.243c-9.946-2.815-20.191-4.205-30.532-4.087
		c-18.809,0.216-37.824,5.688-51.217,19.474c-13.09,13.458-18.69,32.121-19.601,50.51c-0.978,19.771,1.711,41.603,13.973,57.842
		c12.103,16.024,31.412,23.244,50.981,24.105"/>
	<path fill="none" stroke="#FFFFFF" stroke-miterlimit="10" d="M-221.898,65.491c0,33.384,0,66.768,0,100.152
		c0,5.574,0,11.146,0,16.72c0,3.536,0.374,7.087,2.32,10.149c4.316,6.792,15.163,7.856,21.836,4.146
		c8.359-4.652,6.683-15.908,6.683-23.998c0-10.238,0-20.476,0-30.712c0-0.333-0.009-6.113,0.009-6.113c1.879,0,3.756,0,5.635,0
		c9.818,0,19.64,0,29.46,0c8.462,0,16.921,0,25.38,0c1.715,0,1.741-0.314,1.741,1.405c0,3.714,0,7.426,0,11.14
		c0,10.098,0,20.193,0,30.291c0,2.91-0.191,5.966,0.374,8.83c1.741,8.833,10.116,12.03,18.349,10.885
		c7.845-1.093,12.122-7.29,12.122-14.953c0-1.135,0-2.27,0-3.403c0-6.889,0-13.776,0-20.667c0-21.162,0-42.324,0-63.486
		c0-7.934,0-15.869,0-23.803c0-5.795,0.658-12.288-3.342-17.032c-4.986-5.914-16.289-6.384-22.285-1.794
		c-4.265,3.265-5.217,8.44-5.217,13.495c0,9.178,0,18.356,0,27.535c0,4.22,0,8.443,0,12.666c0,1.643,0.577,2.381-1.092,2.381
		c-8.016,0-16.034,0-24.052,0c-10.06,0-20.116,0-30.177,0c-2.25,0-4.502,0-6.755,0c-0.332,0-0.149-4.626-0.149-5.079
		c0-10.072,0-20.146,0-30.218c0-9.326,0.705-21.013-11.106-23.3C-212.715,48.684-221.898,54.267-221.898,65.491
		C-221.898,65.491-221.898,60.804-221.898,65.491z"/>
	<path fill="none" stroke="#FFFFFF" stroke-miterlimit="10" d="M-61.467,65.762c0,8.275,5.467,14.071,13.814,14.071
		c2.89,0,5.782,0,8.672,0c9.092,0,18.186,0,27.28,0c1.242,0,0.556,8.48,0.556,9.689c0,9.099,0,18.2,0,27.299
		c0,19.63,0,39.264,0,58.895c0,5.786-0.793,12.606,2.811,17.511c4.668,6.35,15.756,7.129,22.105,2.974
		c4.468-2.922,5.929-8.127,5.929-13.199c0-33.365,0-66.731,0-100.097c0-0.172-0.019-3.071,0.014-3.071c2.89,0,5.782,0,8.674,0
		c9.092,0,18.184,0,27.278,0c6.256,0,11.914-2.745,13.721-9.127c2.17-7.66-0.733-16.756-9.15-18.604
		c-4.591-1.008-9.909-0.406-14.561-0.406c-20.233,0-40.471,0-60.704,0c-8.539,0-17.075,0-25.611,0
		c-6.09,0-13.356-0.857-17.754,4.281C-60.708,58.679-61.467,62.288-61.467,65.762C-61.467,70.094-61.467,61.257-61.467,65.762z"/>
	<path fill="none" stroke="#FFFFFF" stroke-miterlimit="10" d="M106.541,65.491c0,33.384,0,66.768,0,100.152
		c0,5.574,0,11.146,0,16.72c0,3.536,0.373,7.089,2.322,10.149c4.321,6.79,15.165,7.856,21.835,4.146
		c8.36-4.652,6.685-15.91,6.685-23.998c0-10.238,0-20.476,0-30.712c0-0.333-0.012-6.113,0.01-6.113c1.876,0,3.753,0,5.629,0
		c9.822,0,19.644,0,29.46,0c8.464,0,16.922,0,25.381,0c1.713,0,1.741-0.314,1.741,1.405c0,3.714,0,7.426,0,11.14
		c0,10.098,0,20.193,0,30.291c0,2.91-0.191,5.966,0.373,8.83c1.741,8.833,10.112,12.03,18.348,10.885
		c7.848-1.091,12.123-7.29,12.123-14.953c0-1.135,0-2.27,0-3.403c0-6.889,0-13.776,0-20.667c0-21.162,0-42.324,0-63.486
		c0-7.934,0-15.869,0-23.803c0-5.796,0.654-12.286-3.347-17.032c-4.986-5.914-16.283-6.384-22.282-1.794
		c-4.263,3.265-5.215,8.44-5.215,13.495c0,9.178,0,18.356,0,27.535c0,4.22,0,8.443,0,12.666c0,1.643,0.574,2.381-1.093,2.381
		c-8.015,0-16.035,0-24.05,0c-10.06,0-20.119,0-30.174,0c-2.255,0-4.505,0-6.755,0c-0.336,0-0.149-4.626-0.149-5.079
		c0-10.072,0-20.146,0-30.218c0-9.326,0.705-21.013-11.105-23.3C115.728,48.684,106.541,54.267,106.541,65.491
		C106.541,65.491,106.541,60.804,106.541,65.491z"/>
	<path fill="none" stroke="#FFFFFF" stroke-miterlimit="10" d="M352.612,200.386c16.396-0.719,32.726-5.658,44.747-17.25
		c11.503-11.095,17.558-26.318,19.743-41.932c4.463-31.867-2.946-70.423-34.589-85.71c-15.425-7.452-34.136-8.602-50.844-5.752
		c-15.527,2.648-29.663,10.186-39.299,22.823c-10.056,13.183-14.024,29.803-14.725,46.117c-0.737,17.078,1.387,35.049,9.813,50.193
		c11.47,20.606,32.684,30.506,55.652,31.512"/>
	<path fill="none" stroke="#FFFFFF" stroke-miterlimit="10" d="M347.864,174.522c16.363,0,29.804-8.394,35.536-23.926
		c3.067-8.31,3.964-17.319,3.964-26.124s-0.896-17.812-3.964-26.123c-5.732-15.531-19.168-23.928-35.536-23.928
		c-16.367,0-29.803,8.397-35.536,23.928c-3.066,8.31-3.963,17.318-3.963,26.123s0.896,17.814,3.963,26.124
		C318.061,166.129,331.496,174.522,347.864,174.522C360.669,174.522,335.054,174.522,347.864,174.522z"/>
	<path fill="none" stroke="#FFFFFF" stroke-miterlimit="10" d="M352.612,200.386c-3.165,0.138-6.33,0.138-9.5,0"/>
	<path fill="none" stroke="#FFFFFF" stroke-miterlimit="10" d="M529.993,200.386c-2.03,0.065-4.024,0.065-6.06,0"/>
	<path fill="none" stroke="#FFFFFF" stroke-miterlimit="10" d="M529.993,200.386c18.562-0.604,37.017-7.374,47.89-23.15
		c8.268-12.001,10.765-26.515,10.765-40.826c0-18.363,0-36.726,0-55.088c0-5.643,0.238-11.341-0.023-16.98
		c-0.42-9.026-6.652-13.998-15.396-13.998c-8.692,0-15.004,5.192-15.396,14.084c-0.714,16.048-0.023,32.271-0.023,48.332
		c0,8.154,0,16.31,0,24.466c0,10.77-1.288,23.12-10.2,30.464c-6.307,5.195-15.014,6.3-22.917,5.976
		c-7.587-0.309-15.522-2.372-20.733-8.254c-7.133-8.058-7.838-19.062-7.838-29.309c0-19.122,0-38.242,0-57.364
		c0-5.744,0.868-12.571-0.579-18.216c-2.208-8.608-10.984-11.237-18.991-9.848c-7.558,1.311-11.27,7.54-11.27,14.891
		c0,16.799,0,33.6,0,50.399c0,22.238-1.802,46.236,13.277,64.611c11.148,13.578,28.281,19.253,45.377,19.811"/>
	<path fill="none" stroke="#FFFFFF" stroke-miterlimit="10" d="M692.782,200.386c17.959-0.637,38.271-7.082,47.515-23.776
		c8.482-15.321,5.621-36.629-7.203-48.691c-9.804-9.221-23.011-13.492-35.615-17.327c-4.268-1.3-8.539-2.601-12.811-3.9
		c-6.34-1.931-14.607-4.743-17.67-11.228c-3.52-7.458,0.648-15.889,8.17-18.557c8.352-2.963,18.674-2.019,27.17-0.182
		c4.575,0.99,9.062,2.248,13.534,3.618c4.519,1.384,9.112,3.036,13.926,2.314c8.739-1.311,12.745-11.884,8.964-19.37
		c-2.008-3.975-6.014-5.693-9.93-7.294c-4.86-1.987-9.897-3.533-15.019-4.706c-9.276-2.126-18.81-2.838-28.31-2.838
		c-18.151,0-38.342,6.744-46.745,24.163c-7.475,15.488-4.29,35.88,8.692,47.393c10.107,8.966,23.197,12.918,35.845,16.825
		c9.817,3.032,25.573,5.437,29.836,16.02c3.113,7.72-0.91,15.385-8.343,18.432c-7.955,3.259-17.969,3.048-26.307,1.654
		c-4.725-0.788-9.393-2.294-13.907-3.874c-4.869-1.707-9.775-4.226-14.888-5.059c-9.696-1.58-17.856,5.567-15.896,15.749
		c1.737,9.017,13.357,12.458,20.817,15.107c9.873,3.506,19.943,5.212,30.405,5.529"/>
	<path fill="none" stroke="#FFFFFF" stroke-miterlimit="10" d="M692.782,200.386c-2.601,0.094-5.168,0.077-7.769,0"/>
	<path fill="none" stroke="#FFFFFF" stroke-miterlimit="10" d="M893.328,186.971c0.318-2.14,0.318-4.353,0-6.493"/>
	<path fill="none" stroke="#FFFFFF" stroke-miterlimit="10" d="M893.328,68.467c0.318-2.139,0.318-4.352,0-6.491"/>
	<path fill="none" stroke="#FFFFFF" stroke-miterlimit="10" d="M893.328,61.976c-1.442-9.786-10.177-10.28-18.108-10.28
		c-9.07,0-18.142,0-27.208,0c-10.331,0-20.657,0-30.988,0c-5.724,0-12.689-0.838-18.235,0.875
		c-7.895,2.436-8.852,9.925-8.852,17.025c0,6.81,0,13.62,0,20.43c0,21.167,0,42.333,0,63.5c0,7.708,0,15.415,0,23.123
		c0,6.597-0.378,14.07,5.925,18.197c5.41,3.541,13.939,2.402,20.182,2.402c10.214,0,20.429,0,30.644,0c9.393,0,18.785,0,28.179,0
		c8.011,0,16.998-0.318,18.463-10.278"/>
	<path fill="none" stroke="#FFFFFF" stroke-miterlimit="10" d="M893.328,68.467c-1.517,10.307-11.017,10.282-19.205,10.282
		c-10.01,0-20.019,0-30.023,0c-7.618,0-15.232,0-22.847,0c-1.093,0-0.477,4.268-0.477,5.156c0,5.222,0,10.443,0,15.665
		c0,3.245,0,6.489,0,9.734c0,0.04,6.078,0.019,6.442,0.019c10.163,0,20.326,0,30.49,0c2.479,0,4.953,0,7.427,0
		c8.945,0,14.122,6.736,13.151,15.43c-1.363,12.24-13.608,11.082-22.722,11.082c-10.061,0-20.116,0-30.172,0
		c-0.766,0-4.617-0.502-4.617,0.406c0,3.644,0,7.288,0,10.934c0,1.641-0.042,23.021,0.042,23.021c6.681,0,13.366,0,20.051,0
		c10.645,0,21.293,0,31.938,0c8.463,0,18.921-0.596,20.521,10.282"/>
	<line fill="none" stroke="#FFFFFF" stroke-miterlimit="10" x1="-617.164" y1="65.491" x2="-617.164" y2="182.1"/>
	<line fill="none" stroke="#FFFFFF" stroke-miterlimit="10" x1="893.328" y1="186.971" x2="893.328" y2="180.478"/>
	<line fill="none" stroke="#FFFFFF" stroke-miterlimit="10" x1="893.328" y1="61.976" x2="893.328" y2="68.467"/>
	<line fill="none" stroke="#FFFFFF" stroke-miterlimit="10" x1="529.993" y1="200.386" x2="523.934" y2="200.386"/>
	<line fill="none" stroke="#FFFFFF" stroke-miterlimit="10" x1="-326.987" y1="200.386" x2="-336.433" y2="200.386"/>
	<line fill="none" stroke="#FFFFFF" stroke-miterlimit="10" x1="692.782" y1="200.386" x2="685.014" y2="200.386"/>
	<line fill="none" stroke="#FFFFFF" stroke-miterlimit="10" x1="352.612" y1="200.386" x2="343.112" y2="200.386"/>
</g>
</svg>
