<?xml version="1.0" encoding="utf-8"?>
<!-- Generator: Adobe Illustrator 17.1.0, SVG Export Plug-In . SVG Version: 6.00 Build 0)  -->
<!DOCTYPE svg PUBLIC "-//W3C//DTD SVG 1.0//EN" "http://www.w3.org/TR/2001/REC-SVG-20010904/DTD/svg10.dtd">
<svg version="1.0"
	 id="svg3769" sodipodi:docname="New document 3" inkscape:version="0.48.3.1 r9886" xmlns:dc="http://purl.org/dc/elements/1.1/" xmlns:cc="http://creativecommons.org/ns#" xmlns:inkscape="http://www.inkscape.org/namespaces/inkscape" xmlns:svg="http://www.w3.org/2000/svg" xmlns:sodipodi="http://sodipodi.sourceforge.net/DTD/sodipodi-0.dtd" xmlns:rdf="http://www.w3.org/1999/02/22-rdf-syntax-ns#"
	 xmlns="http://www.w3.org/2000/svg" xmlns:xlink="http://www.w3.org/1999/xlink" x="0px" y="0px" viewBox="0 0 222.639 218.787"
	 enable-background="new 0 0 222.639 218.787" xml:space="preserve">
<sodipodi:namedview  inkscape:window-maximized="1" inkscape:window-y="0" inkscape:window-x="0" inkscape:pageshadow="2" inkscape:window-height="965" inkscape:pageopacity="0.0" inkscape:window-width="1280" inkscape:current-layer="layer1" fit-margin-bottom="4" inkscape:document-units="px" fit-margin-right="4" id="base" inkscape:cy="-39.177766" fit-margin-left="4" borderopacity="1.0" fit-margin-top="4" inkscape:zoom="1.4" bordercolor="#666666" inkscape:cx="60.605349" pagecolor="#ffffff" showgrid="false">
	</sodipodi:namedview>
<path fill="none" stroke="#FF00FF" stroke-width="4" stroke-linecap="square" stroke-linejoin="round" stroke-miterlimit="10" d="
	M-451.16,479.356c0,0,1.76-134.012,2.634-150.713c1.323-21.089,24.608-56.237,67.228-56.237c32.079,0,57.124,24.165,65.912,47.012
	c8.344,21.532,2.633,44.816-6.59,58.88c-10.11,15.82-21.969,27.241-19.335,41.739c3.077,15.82,15.377,20.649,39.543,19.777"/>
<path fill="none" stroke="#FF00FF" stroke-width="4" stroke-linecap="square" stroke-linejoin="round" stroke-miterlimit="10" d="
	M-413.813,479.356c0,0,0-132.694,0.443-141.046c0.88-10.541,9.224-28.122,30.756-28.122c15.82,0,28.559,11.864,32.952,23.292
	c3.957,10.984-1.317,21.968-4.831,29.439c-4.837,10.104-20.652,22.847-22.848,39.984c-3.513,26.799,7.908,55.357,39.106,66.786
	c12.301,4.393,25.044,5.709,36.909,5.272"/>
<line fill="none" stroke="#FF00FF" stroke-width="4" stroke-linecap="square" stroke-linejoin="round" stroke-miterlimit="10" x1="-245.962" y1="276.799" x2="-245.962" y2="475.843"/>
<line fill="none" stroke="#FF00FF" stroke-width="4" stroke-linecap="square" stroke-linejoin="round" stroke-miterlimit="10" x1="-210.813" y1="276.799" x2="-210.813" y2="475.843"/>
<path fill="none" stroke="#FF00FF" stroke-width="4" stroke-linecap="square" stroke-linejoin="round" stroke-miterlimit="10" d="
	M-0.348,275.483c0,0-51.844-0.882-67.665,0.873c-18.892,2.196-85.239,21.095-85.239,100.181c0,82.604,77.769,99.742,101.935,101.503
	c18.017,1.316,52.286,0,52.286,0v-90.076"/>
<path fill="none" stroke="#FF00FF" stroke-width="4" stroke-linecap="square" stroke-linejoin="round" stroke-miterlimit="10" d="
	M-1.228,313.266c0,0-34.707,0-50.09,0c-17.575,0-66.349,11.864-66.349,59.758c0,42.619,35.593,59.757,49.216,63.271
	c10.541,2.64,32.953,3.075,32.953,3.075l0.437-51.406"/>
<line fill="none" stroke="#FF00FF" stroke-width="4" stroke-linecap="square" stroke-linejoin="round" stroke-miterlimit="10" x1="202.208" y1="276.356" x2="202.208" y2="478.04"/>
<line fill="none" stroke="#FF00FF" stroke-width="4" stroke-linecap="square" stroke-linejoin="round" stroke-miterlimit="10" x1="61.169" y1="276.356" x2="61.169" y2="478.04"/>
<polyline fill="none" stroke="#FF00FF" stroke-width="4" stroke-linecap="square" stroke-linejoin="round" stroke-miterlimit="10" points="
	166.178,276.356 166.178,359.405 99.395,359.405 99.395,276.356 "/>
<polyline fill="none" stroke="#FF00FF" stroke-width="4" stroke-linecap="square" stroke-linejoin="round" stroke-miterlimit="10" points="
	166.178,478.04 166.178,394.99 99.395,394.99 99.395,478.04 "/>
<line fill="none" stroke="#FF00FF" stroke-width="4" stroke-linecap="square" stroke-linejoin="round" stroke-miterlimit="10" x1="262.403" y1="276.356" x2="407.841" y2="276.356"/>
<polyline fill="none" stroke="#FF00FF" stroke-width="4" stroke-linecap="square" stroke-linejoin="round" stroke-miterlimit="10" points="
	262.403,313.709 315.569,313.709 315.569,475.843 "/>
<polyline fill="none" stroke="#FF00FF" stroke-width="4" stroke-linecap="square" stroke-linejoin="round" stroke-miterlimit="10" points="
	407.841,313.709 354.676,313.709 354.676,475.843 "/>
<path fill="none" stroke="#FF00FF" stroke-width="4" stroke-linecap="square" stroke-linejoin="round" stroke-miterlimit="10" d="
	M541.854,310.632c36.885,0,66.791,29.9,66.791,66.785c0,36.884-29.906,66.79-66.791,66.79c-36.884,0-66.784-29.906-66.784-66.79
	C475.07,340.532,504.97,310.632,541.854,310.632z"/>
<path fill="none" stroke="#FF00FF" stroke-width="4" stroke-linecap="square" stroke-linejoin="round" stroke-miterlimit="10" d="
	M541.854,377.417L541.854,377.417L541.854,377.417z"/>
<path fill="none" stroke="#FF00FF" stroke-width="4" stroke-linecap="square" stroke-linejoin="round" stroke-miterlimit="10" d="
	M541.854,272.406c57.997,0,105.019,47.012,105.019,105.011c0,57.998-47.021,105.017-105.019,105.017
	s-105.011-47.019-105.011-105.017C436.843,319.418,483.857,272.406,541.854,272.406z"/>
<path fill="none" stroke="#FF00FF" stroke-width="4" stroke-linecap="square" stroke-linejoin="round" stroke-miterlimit="10" d="
	M693.441,477.597c0,0,0-167.408,0-173.555c0-14.061,7.472-29.003,23.729-32.078c15.82-2.635,25.044,4.393,34.275,18.896
	c9.667,14.936,83.479,160.376,81.282,150.708V270.646"/>
<path fill="none" stroke="#FF00FF" stroke-width="4" stroke-linecap="square" stroke-linejoin="round" stroke-miterlimit="10" d="
	M864.806,271.084c0,0-0.438,157.739-1.76,177.954c-0.875,14.061-9.661,28.559-23.722,31.636
	c-14.061,3.513-24.609-4.395-34.275-18.892c-9.224-14.504-78.649-148.517-78.649-148.517V477.16"/>
<path fill="none" stroke="#FF00FF" stroke-width="4" stroke-linecap="square" stroke-miterlimit="10" d="M-642.732,277.236
	c0,0,52.724-0.438,67.665,0c14.941,0.442,60.194,10.548,60.637,56.244c0,23.728-20.214,43.937-20.214,43.937
	s27.685,18.896,25.924,52.286c-2.633,41.745-46.133,54.928-65.905,54.928c-14.94,0-66.348-1.317-66.348-1.317L-642.732,277.236z"/>
<path fill="none" stroke="#FF00FF" stroke-width="4" stroke-linecap="square" stroke-miterlimit="10" d="M-604.506,316.343h29.001
	c0,0,21.088,0,21.088,19.771c0,22.85-21.088,22.85-21.088,22.85h-29.001V316.343z"/>
<path fill="none" stroke="#FF00FF" stroke-width="4" stroke-linecap="square" stroke-miterlimit="10" d="M-604.506,396.75v49.211
	h24.166c0,0,29.438,1.317,30.318-22.847c0.88-25.927-28.996-26.364-28.996-26.364H-604.506z"/>
<path fill="none" stroke="#00FFFF" stroke-width="4" stroke-linecap="square" stroke-linejoin="round" stroke-miterlimit="10" d="
	M-375.145-125.244c0,0-63.271,311.53,5.711,317.678c29.881,2.64,124.345-81.726,138.849-238.586
	c5.273-60.201-3.077-97.104-28.123-88.317c-37.789,13.182-15.82,88.753,7.028,110.284c26.804,25.482,70.742,14.941,103.256-28.559
	c21.095-28.122,62.834-124.788,62.834-124.788s-36.472,307.573,2.634,322.951c41.302,15.82,88.759-45.696,148.953-228.045
	l18.018-112.481c0,0-39.106,298.344,31.636,315.919c62.83,15.823,125.663-147.192,137.965-234.192
	c6.152-42.182,1.758-105.891-32.073-87.879c-33.833,18.018-5.274,116.88,21.087,123.472c23.293,6.146,71.186,0,135.336-106.771
	c74.691-125.226,153.347-50.534,153.347-50.534s-94.47-70.298-149.396,56.681c-8.787,19.771-28.559,79.971-31.636,116.438
	c-5.71,65.911,3.514,121.71,42.619,123.471c50.091,2.634,95.787-70.742,112.488-137.968c9.666-38.67,37.782-184.546,37.782-184.546
	s-39.1,210.027-42.177,233.318c-3.957,28.996-6.59,60.194,17.575,71.178c57.56,26.806,101.496-97.54,101.496-97.54"/>
<path fill="none" stroke="#00FFFF" stroke-width="4" stroke-linecap="square" stroke-linejoin="round" stroke-miterlimit="10" d="
	M-74.604-283.864c13.344,0,24.166,10.82,24.166,24.171c0,13.344-10.821,24.165-24.166,24.165s-24.165-10.82-24.165-24.165
	C-98.769-273.044-87.949-283.864-74.604-283.864z"/>
<path fill="none" stroke="#00FFFF" stroke-width="4" stroke-linecap="square" stroke-linejoin="round" stroke-miterlimit="10" d="
	M-375.145-125.244c0,0-63.271,311.53,5.711,317.678c29.881,2.64,124.345-81.726,138.849-238.586
	c5.273-60.201-3.077-97.104-28.123-88.317c-37.789,13.182-15.82,88.753,7.028,110.284c26.804,25.482,70.742,14.941,103.256-28.559
	c21.095-28.122,62.834-124.788,62.834-124.788s-36.472,307.573,2.634,322.951c41.302,15.82,88.759-45.696,148.953-228.045
	l18.018-112.481c0,0-39.106,298.344,31.636,315.919c62.83,15.823,125.663-147.192,137.965-234.192
	c6.152-42.182,1.758-105.891-32.073-87.879c-33.833,18.018-5.274,116.88,21.087,123.472c23.293,6.146,71.186,0,135.336-106.771
	c74.691-125.226,153.347-50.534,153.347-50.534s-94.47-70.298-149.396,56.681c-8.787,19.771-28.559,79.971-31.636,116.438
	c-5.71,65.911,3.514,121.71,42.619,123.471c50.091,2.634,95.787-70.742,112.488-137.968c9.666-38.67,37.782-184.546,37.782-184.546
	s-39.1,210.027-42.177,233.318c-3.957,28.996-6.59,60.194,17.575,71.178c57.56,26.806,101.496-97.54,101.496-97.54"/>
<path fill="none" stroke="#00FFFF" stroke-width="4" stroke-linecap="square" stroke-linejoin="round" stroke-miterlimit="10" d="
	M-74.604-283.864c13.344,0,24.166,10.82,24.166,24.171c0,13.344-10.821,24.165-24.166,24.165s-24.165-10.82-24.165-24.165
	C-98.769-273.044-87.949-283.864-74.604-283.864z"/>
</svg>
